{"asset":{"generator":"3D Builder","version":"2.0"},"scene":0,"scenes":[{"nodes":[0,1,2,3]}],"nodes":[{"mesh":0,"matrix":[1,0,0,0,0,-1.1920928955078125E-7,-0.99999988079071045,0,0,0.99999988079071045,-1.1920928955078125E-7,0,-0.06221301481127739,0.2709333598613739,-0.38098615407943726,1]},{"mesh":1,"matrix":[1,0,0,0,0,-1.1920928955078125E-7,-0.99999988079071045,0,0,0.99999988079071045,-1.1920928955078125E-7,0,-0.06221301481127739,0.2709333598613739,-0.38098615407943726,1]},{"mesh":2,"matrix":[1,0,0,0,0,-1.1920928955078125E-7,-0.99999988079071045,0,0,0.99999988079071045,-1.1920928955078125E-7,0,-0.06221301481127739,0.2709333598613739,-0.38098615407943726,1]},{"mesh":3,"matrix":[1,0,0,0,0,-1.1920928955078125E-7,-0.99999988079071045,0,0,0.99999988079071045,-1.1920928955078125E-7,0,-0.06221301481127739,0.2709333598613739,-0.38098615407943726,1]}],"meshes":[{"primitives":[{"attributes":{"POSITION":0,"TEXCOORD_0":1},"mode":4,"indices":2,"material":0}]},{"primitives":[{"attributes":{"POSITION":3,"TEXCOORD_0":4},"mode":4,"indices":5,"material":0}]},{"primitives":[{"attributes":{"POSITION":6,"TEXCOORD_0":7},"mode":4,"indices":8,"material":1}]},{"primitives":[{"attributes":{"POSITION":9,"TEXCOORD_0":10},"mode":4,"indices":11,"material":1}]}],"materials":[{"pbrMetallicRoughness":{"baseColorFactor":[1,1,1,1],"metallicFactor":1,"roughnessFactor":1,"baseColorTexture":{"index":0,"texCoord":0},"metallicRoughnessTexture":{"index":1,"texCoord":0}},"alphaMode":"OPAQUE"},{"pbrMetallicRoughness":{"baseColorFactor":[1,1,1,1],"metallicFactor":1,"roughnessFactor":1,"baseColorTexture":{"index":0,"texCoord":0}},"alphaMode":"OPAQUE"}],"textures":[{"source":0,"sampler":0},{"source":1,"sampler":0}],"images":[{"uri":"texture_0_6195987693227547908.png"},{"uri":"texture_1_17319628118832143767.png"}],"samplers":[{"magFilter":9729,"wrapS":10497,"wrapT":10497}],"accessors":[{"bufferView":0,"byteOffset":0,"count":1027,"componentType":5126,"type":"VEC3","min":[-0.13968423008918762,-0.28535586595535278,-0.089698381721973419],"max":[0.12273222953081131,-0.22601136565208435,0.15887409448623657]},{"bufferView":1,"byteOffset":0,"count":1027,"componentType":5126,"type":"VEC2"},{"bufferView":2,"byteOffset":0,"count":5400,"componentType":5125,"type":"SCALAR"},{"bufferView":3,"byteOffset":0,"count":3713,"componentType":5126,"type":"VEC3","min":[-0.35226130485534668,-0.28848457336425781,-0.27093344926834106],"max":[0.45988321304321289,-0.22913971543312073,0.33985596895217896]},{"bufferView":4,"byteOffset":0,"count":3713,"componentType":5126,"type":"VEC2"},{"bufferView":5,"byteOffset":0,"count":20250,"componentType":5125,"type":"SCALAR"},{"bufferView":6,"byteOffset":0,"count":1027,"componentType":5126,"type":"VEC3","min":[-0.14011918008327484,-0.31422948837280273,-0.089698389172554016],"max":[0.12229728698730469,-0.25488495826721191,0.15887409448623657]},{"bufferView":7,"byteOffset":0,"count":1027,"componentType":5126,"type":"VEC2"},{"bufferView":8,"byteOffset":0,"count":5400,"componentType":5125,"type":"SCALAR"},{"bufferView":9,"byteOffset":0,"count":3713,"componentType":5126,"type":"VEC3","min":[-0.35269623994827271,-0.31735816597938538,-0.27093344926834106],"max":[0.45944827795028687,-0.25801333785057068,0.33985596895217896]},{"bufferView":10,"byteOffset":0,"count":3713,"componentType":5126,"type":"VEC2"},{"bufferView":11,"byteOffset":0,"count":20250,"componentType":5125,"type":"SCALAR"}],"bufferViews":[{"buffer":0,"byteOffset":0,"byteLength":12324,"byteStride":12,"target":34962},{"buffer":0,"byteOffset":12324,"byteLength":8216,"byteStride":8,"target":34962},{"buffer":0,"byteOffset":20540,"byteLength":21600,"target":34963},{"buffer":0,"byteOffset":42140,"byteLength":44556,"byteStride":12,"target":34962},{"buffer":0,"byteOffset":86696,"byteLength":29704,"byteStride":8,"target":34962},{"buffer":0,"byteOffset":116400,"byteLength":81000,"target":34963},{"buffer":0,"byteOffset":197400,"byteLength":12324,"byteStride":12,"target":34962},{"buffer":0,"byteOffset":209724,"byteLength":8216,"byteStride":8,"target":34962},{"buffer":0,"byteOffset":217940,"byteLength":21600,"target":34963},{"buffer":0,"byteOffset":239540,"byteLength":44556,"byteStride":12,"target":34962},{"buffer":0,"byteOffset":284096,"byteLength":29704,"byteStride":8,"target":34962},{"buffer":0,"byteOffset":313800,"byteLength":81000,"target":34963}],"buffers":[{"byteLength":394800,"uri":"@3D.bin"}]}